<svg width="100" height="100" viewBox="0 0 100 100" fill="none" xmlns="http://www.w3.org/2000/svg">
<g id="carbon:delivery">
<path id="Vector" d="M12.5 50H50V56.25H12.5V50Z" fill="#44C3EB"/>
<path id="Vector_2" d="M6.25 34.375H37.5V40.625H6.25V34.375Z" fill="#44C3EB"/>
<path id="Vector_3" d="M93.4968 51.8938L84.1218 30.0188C83.8812 29.4565 83.4808 28.9773 82.9703 28.6406C82.4597 28.304 81.8615 28.1247 81.25 28.125H71.875V21.875C71.875 21.0462 71.5457 20.2513 70.9597 19.6653C70.3736 19.0792 69.5788 18.75 68.75 18.75H18.7499V25H65.625V64.2375C64.201 65.0644 62.9548 66.1649 61.9583 67.4758C60.9617 68.7866 60.2346 70.2818 59.8187 71.875H40.1812C39.4206 68.9292 37.6117 66.3619 35.0937 64.6544C32.5756 62.9468 29.5212 62.2163 26.5031 62.5996C23.4849 62.983 20.7102 64.4539 18.6989 66.7368C16.6877 69.0196 15.5781 71.9576 15.5781 75C15.5781 78.0424 16.6877 80.9804 18.6989 83.2632C20.7102 85.5461 23.4849 87.017 26.5031 87.4004C29.5212 87.7837 32.5756 87.0532 35.0937 85.3456C37.6117 83.6381 39.4206 81.0708 40.1812 78.125H59.8187C60.4985 80.807 62.0532 83.1857 64.2368 84.8849C66.4203 86.5841 69.1082 87.5066 71.875 87.5066C74.6418 87.5066 77.3296 86.5841 79.5131 84.8849C81.6967 83.1857 83.2514 80.807 83.9312 78.125H90.625C91.4538 78.125 92.2486 77.7958 92.8347 77.2097C93.4207 76.6237 93.75 75.8288 93.75 75V53.125C93.7501 52.7016 93.664 52.2827 93.4968 51.8938ZM28.1249 81.25C26.8888 81.25 25.6804 80.8834 24.6526 80.1967C23.6248 79.5099 22.8237 78.5338 22.3507 77.3918C21.8777 76.2497 21.7539 74.9931 21.995 73.7807C22.2362 72.5683 22.8315 71.4547 23.7055 70.5806C24.5796 69.7065 25.6933 69.1112 26.9056 68.8701C28.118 68.6289 29.3747 68.7527 30.5167 69.2258C31.6588 69.6988 32.6349 70.4999 33.3216 71.5277C34.0084 72.5555 34.3749 73.7639 34.3749 75C34.3733 76.6571 33.7143 78.2458 32.5425 79.4176C31.3708 80.5893 29.782 81.2483 28.1249 81.25ZM71.875 34.375H79.1875L85.8875 50H71.875V34.375ZM71.875 81.25C70.6388 81.25 69.4304 80.8834 68.4026 80.1967C67.3748 79.5099 66.5738 78.5338 66.1007 77.3918C65.6277 76.2497 65.5039 74.9931 65.745 73.7807C65.9862 72.5683 66.5815 71.4547 67.4555 70.5806C68.3296 69.7065 69.4433 69.1112 70.6556 68.8701C71.868 68.6289 73.1247 68.7527 74.2667 69.2258C75.4088 69.6988 76.3849 70.4999 77.0716 71.5277C77.7584 72.5555 78.125 73.7639 78.125 75C78.1233 76.6571 77.4643 78.2458 76.2925 79.4176C75.1208 80.5893 73.5321 81.2483 71.875 81.25ZM87.5 71.875H83.9312C83.2428 69.1982 81.6857 66.8256 79.5038 65.1289C77.322 63.4323 74.6388 62.5077 71.875 62.5V56.25H87.5V71.875Z" fill="#44C3EB"/>
</g>
</svg>
