<svg width="243" height="39" viewBox="0 0 243 39" fill="none" xmlns="http://www.w3.org/2000/svg">
<g clip-path="url(#clip0_603_18)">
<path d="M38.1111 7.95857C36.7651 8.55499 35.3192 8.95798 33.7992 9.14012C35.3676 8.20164 36.541 6.72458 37.1004 4.98454C35.6268 5.85981 34.0141 6.4759 32.3323 6.80604C31.2013 5.59847 29.7033 4.79808 28.0708 4.52913C26.4384 4.26017 24.7628 4.5377 23.3042 5.31862C21.8456 6.09954 20.6857 7.34017 20.0044 8.84789C19.3232 10.3556 19.1588 12.046 19.5367 13.6568C16.5509 13.5069 13.63 12.7308 10.9635 11.379C8.297 10.0271 5.94457 8.1297 4.05885 5.80986C3.41408 6.92209 3.04333 8.21165 3.04333 9.58502C3.04261 10.8214 3.34707 12.0388 3.9297 13.1292C4.51233 14.2197 5.35511 15.1495 6.38327 15.8361C5.19088 15.7982 4.0248 15.476 2.98208 14.8964V14.9931C2.98196 16.7271 3.58177 18.4078 4.67975 19.7499C5.77772 21.092 7.30622 22.013 9.0059 22.3564C7.89976 22.6558 6.74005 22.6999 5.61438 22.4854C6.09392 23.9774 7.02804 25.2821 8.28595 26.2169C9.54387 27.1517 11.0626 27.6697 12.6295 27.6984C9.96957 29.7865 6.68452 30.9192 3.30285 30.9142C2.70383 30.9144 2.1053 30.8794 1.51038 30.8094C4.94296 33.0165 8.93875 34.1878 13.0196 34.1832C26.834 34.1832 34.3859 22.7417 34.3859 12.8186C34.3859 12.4962 34.3778 12.1706 34.3633 11.8482C35.8323 10.7859 37.1003 9.4704 38.1079 7.96341L38.1111 7.95857Z" fill="white"/>
</g>
<path d="M139.634 4.23145H111.828C111.16 4.23145 110.619 4.7717 110.619 5.4404V33.2464C110.619 33.9151 111.16 34.4553 111.828 34.4553H139.634C140.303 34.4553 140.843 33.9151 140.843 33.2464V5.4404C140.843 4.7717 140.303 4.23145 139.634 4.23145ZM136.143 13.053H133.729C131.837 13.053 131.47 13.9522 131.47 15.2745V18.1873H135.989L135.399 22.7474H131.47V34.4553H126.759V22.7511H122.818V18.1873H126.759V14.8249C126.759 10.9223 129.143 8.79525 132.626 8.79525C134.296 8.79525 135.728 8.91993 136.147 8.97659V13.053H136.143Z" fill="white"/>
<path d="M241.791 8.06006H213.985C213.316 8.06006 212.776 8.60031 212.776 9.26901V37.075C212.776 37.7437 213.316 38.2839 213.985 38.2839H241.791C242.46 38.2839 243 37.7437 243 37.075V9.26901C243 8.60031 242.46 8.06006 241.791 8.06006ZM221.741 33.8146H217.257V19.3902H221.741V33.8146ZM219.501 17.4181C218.987 17.4181 218.484 17.2657 218.057 16.9801C217.629 16.6945 217.296 16.2885 217.1 15.8136C216.903 15.3386 216.851 14.816 216.952 14.3118C217.052 13.8076 217.299 13.3444 217.663 12.9809C218.026 12.6174 218.49 12.3699 218.994 12.2696C219.498 12.1693 220.021 12.2207 220.496 12.4175C220.971 12.6142 221.377 12.9474 221.662 13.3748C221.948 13.8023 222.1 14.3048 222.1 14.8189C222.096 16.2545 220.933 17.4181 219.501 17.4181ZM238.531 33.8146H234.05V26.7989C234.05 25.1252 234.02 22.9755 231.719 22.9755C229.388 22.9755 229.029 24.7965 229.029 26.678V33.8146H224.552V19.3902H228.851V21.3623H228.912C229.509 20.2289 230.971 19.0313 233.155 19.0313C237.696 19.0313 238.531 22.0197 238.531 25.9035V33.8146Z" fill="white"/>
<defs>
<clipPath id="clip0_603_18">
<rect width="38.6866" height="38.6866" fill="white"/>
</clipPath>
</defs>
</svg>
