<svg width="31" height="31" viewBox="0 0 31 31" fill="none" xmlns="http://www.w3.org/2000/svg">
<g id="map-pin">
<path id="Vector" d="M26.4425 12.5918C26.4425 21.4059 15.11 28.9609 15.11 28.9609C15.11 28.9609 3.77747 21.4059 3.77747 12.5918C3.77747 9.58621 4.97142 6.70375 7.09668 4.57849C9.22193 2.45323 12.1044 1.25928 15.11 1.25928C18.1155 1.25928 20.998 2.45323 23.1233 4.57849C25.2485 6.70375 26.4425 9.58621 26.4425 12.5918Z" stroke="white" stroke-width="2" stroke-linecap="round" stroke-linejoin="round"/>
<path id="Vector_2" d="M15.11 16.369C17.1963 16.369 18.8875 14.6777 18.8875 12.5915C18.8875 10.5052 17.1963 8.81396 15.11 8.81396C13.0238 8.81396 11.3325 10.5052 11.3325 12.5915C11.3325 14.6777 13.0238 16.369 15.11 16.369Z" stroke="white" stroke-width="2" stroke-linecap="round" stroke-linejoin="round"/>
</g>
</svg>
