<svg width="50" height="50" viewBox="0 0 50 50" fill="none" xmlns="http://www.w3.org/2000/svg">
<g id="ant-design:play-circle-outlined">
<path id="Vector" d="M25 3.125C12.9199 3.125 3.125 12.9199 3.125 25C3.125 37.0801 12.9199 46.875 25 46.875C37.0801 46.875 46.875 37.0801 46.875 25C46.875 12.9199 37.0801 3.125 25 3.125ZM25 43.1641C14.9707 43.1641 6.83594 35.0293 6.83594 25C6.83594 14.9707 14.9707 6.83594 25 6.83594C35.0293 6.83594 43.1641 14.9707 43.1641 25C43.1641 35.0293 35.0293 43.1641 25 43.1641Z" fill="#44C3EB" fill-opacity="0.8"/>
<path id="Vector_2" d="M35.127 24.3701L20.669 13.8721C20.553 13.7871 20.4157 13.7359 20.2724 13.7244C20.1291 13.7128 19.9854 13.7413 19.8573 13.8066C19.7292 13.8719 19.6218 13.9715 19.547 14.0943C19.4722 14.217 19.4329 14.3582 19.4336 14.502V35.4981C19.4336 36.1377 20.1563 36.499 20.669 36.1279L35.127 25.6299C35.2268 25.558 35.3081 25.4633 35.3642 25.3538C35.4202 25.2443 35.4495 25.123 35.4495 25C35.4495 24.877 35.4202 24.7557 35.3642 24.6462C35.3081 24.5367 35.2268 24.442 35.127 24.3701ZM22.5488 30.9131V19.0869L30.6885 25L22.5488 30.9131Z" fill="#44C3EB" fill-opacity="0.8"/>
</g>
</svg>
