<svg width="100" height="100" viewBox="0 0 100 100" fill="none" xmlns="http://www.w3.org/2000/svg">
<g id="ri:secure-payment-line">
<path id="Vector" d="M45.8333 8.33331L76.2417 17.8333C77.0898 18.0981 77.831 18.627 78.3572 19.3428C78.8834 20.0587 79.1671 20.924 79.1667 21.8125V29.1666H87.5C88.6051 29.1666 89.6649 29.6056 90.4463 30.387C91.2277 31.1684 91.6667 32.2282 91.6667 33.3333V66.6666C91.6667 67.7717 91.2277 68.8315 90.4463 69.6129C89.6649 70.3943 88.6051 70.8333 87.5 70.8333L74.0833 70.8375C72.4708 72.9625 70.5125 74.8375 68.25 76.3791L45.8333 91.6666L23.4167 76.3833C20.0522 74.0894 17.299 71.0083 15.3964 67.408C13.4939 63.8076 12.4996 59.7971 12.5 55.725V21.8125C12.5005 20.9247 12.7845 20.0604 13.3107 19.3453C13.8368 18.6303 14.5776 18.102 15.425 17.8375L45.8333 8.33331ZM45.8333 17.0583L20.8333 24.875V55.725C20.8327 58.2759 21.4177 60.793 22.5432 63.0822C23.6687 65.3714 25.3046 67.3718 27.325 68.9291L28.1125 69.4958L45.8333 81.5833L61.5917 70.8333H41.6667C40.5616 70.8333 39.5018 70.3943 38.7204 69.6129C37.939 68.8315 37.5 67.7717 37.5 66.6666V33.3333C37.5 32.2282 37.939 31.1684 38.7204 30.387C39.5018 29.6056 40.5616 29.1666 41.6667 29.1666H70.8333V24.875L45.8333 17.0583ZM45.8333 50V62.5H83.3333V50H45.8333ZM45.8333 41.6666H83.3333V37.5H45.8333V41.6666Z" fill="#44C3EB"/>
</g>
</svg>
